<svg xmlns="http://www.w3.org/2000/svg" viewBox="0 0 512 512">
  <rect width="512" height="512" rx="96" fill="#0f766e"/>
  <!-- interlinear rows: vernacular word bars with gloss bars beneath (recolored editor mark) -->
  <g fill="#ffffff">
    <rect x="88"  y="116" width="120" height="34" rx="10"/>
    <rect x="232" y="116" width="76"  height="34" rx="10"/>
    <rect x="332" y="116" width="98"  height="34" rx="10"/>
    <g opacity="0.62">
      <rect x="88"  y="162" width="96"  height="20" rx="8"/>
      <rect x="232" y="162" width="60"  height="20" rx="8"/>
      <rect x="332" y="162" width="76"  height="20" rx="8"/>
    </g>
    <rect x="88"  y="244" width="84"  height="34" rx="10"/>
    <rect x="196" y="244" width="130" height="34" rx="10"/>
    <rect x="350" y="244" width="74"  height="34" rx="10"/>
    <g opacity="0.62">
      <rect x="88"  y="290" width="64"  height="20" rx="8"/>
      <rect x="196" y="290" width="104" height="20" rx="8"/>
      <rect x="350" y="290" width="58"  height="20" rx="8"/>
    </g>
    <g opacity="0.85">
      <rect x="88"  y="372" width="336" height="22" rx="9"/>
    </g>
  </g>
</svg>
